<?xml version="1.0" standalone="no"?>
<!DOCTYPE svg PUBLIC "-//W3C//DTD SVG 20010904//EN"
        "http://www.w3.org/TR/2001/REC-SVG-20010904/DTD/svg10.dtd">
<svg version="1.0" xmlns="http://www.w3.org/2000/svg"
     width="700.000000pt" height="700.000000pt" viewBox="0 0 700.000000 700.000000"
     preserveAspectRatio="xMidYMid meet">
    <metadata>
        Created by potrace 1.11, written by Peter Selinger 2001-2013
    </metadata>
    <g transform="translate(0.000000,700.000000) scale(0.100000,-0.100000)"
       fill="#000000" stroke="none">
        <path d="M0 3500 l0 -3500 3500 0 3500 0 0 3500 0 3500 -3500 0 -3500 0 0
-3500z m4448 2874 c515 -32 1067 -246 1508 -584 108 -83 293 -250 351 -317
l51 -58 -103 -229 c-57 -125 -106 -230 -108 -232 -3 -3 -35 32 -72 78 -106
129 -290 306 -429 410 -331 248 -692 392 -1116 444 -189 23 -547 15 -710 -15
-257 -49 -426 -104 -645 -211 -482 -235 -867 -616 -1108 -1097 -31 -62 -115
-266 -132 -320 l-6 -23 1945 0 c1070 0 1946 -2 1946 -4 0 -2 -47 -109 -104
-237 l-104 -234 -1890 -3 -1890 -2 -6 -31 c-8 -41 -8 -377 0 -418 l7 -31 1778
0 c979 0 1779 -3 1779 -7 0 -5 -46 -113 -102 -240 l-103 -232 -1627 -1 c-896
0 -1628 -1 -1628 -3 0 -2 20 -57 45 -122 264 -697 837 -1235 1547 -1454 384
-118 825 -135 1226 -45 504 113 989 410 1312 804 l75 91 3 -343 2 -342 -42
-38 c-83 -74 -266 -208 -384 -281 -411 -256 -871 -402 -1341 -426 -705 -36
-1368 181 -1943 638 -122 96 -353 328 -455 456 -225 282 -390 586 -503 928
l-45 137 -403 0 c-222 0 -404 3 -403 8 0 4 46 111 103 237 l102 230 259 3 260
2 0 240 0 240 -362 0 c-200 0 -363 3 -363 8 0 4 47 111 103 237 l103 230 300
3 300 2 47 143 c352 1063 1286 1847 2382 1997 185 26 350 30 593 14z"/>
    </g>
</svg>
